<svg id="Layer_1" data-name="Layer 1" xmlns="http://www.w3.org/2000/svg" xmlns:xlink="http://www.w3.org/1999/xlink" width="451.28" height="451.28" viewBox="0 0 451.28 451.28"><defs><style>.cls-1{fill:#fff;}.cls-2,.cls-6{fill:none;stroke-miterlimit:10;}.cls-2{stroke:#34adb4;stroke-width:6px;}.cls-3{fill:#6a3b17;}.cls-4{fill:#7dc243;}.cls-5{fill:url(#linear-gradient);}.cls-6{stroke:#61b869;stroke-width:1.83px;}.cls-7{fill:#6d4d42;}.cls-8{fill:#359345;}.cls-9{fill:#3f8d42;}.cls-10{fill:#54b661;}.cls-11{fill:#4b9344;}.cls-12{fill:#3d864f;}.cls-13{font-size:76.67px;fill:#138d7a;font-family:PalatinoLinotype-BoldItalic, Palatino Linotype;font-weight:700;font-style:italic;}.cls-14{fill:#3aa5b3;}.cls-15{fill:#9bd4b5;}.cls-16{fill:#2aa9ba;}</style><linearGradient id="linear-gradient" x1="303.07" y1="269.99" x2="407.68" y2="269.99" gradientUnits="userSpaceOnUse"><stop offset="0" stop-color="#6a3b17"/><stop offset="0.02" stop-color="#5d471d"/><stop offset="0.07" stop-color="#425e2a"/><stop offset="0.12" stop-color="#2c7235"/><stop offset="0.19" stop-color="#1b813d"/><stop offset="0.27" stop-color="#108b43"/><stop offset="0.39" stop-color="#099146"/><stop offset="0.7" stop-color="#079347"/><stop offset="0.83" stop-color="#42aa45"/><stop offset="0.94" stop-color="#6dbb44"/><stop offset="1" stop-color="#7dc243"/></linearGradient></defs><title>Icon The book Garden</title><circle class="cls-1" cx="225.64" cy="225.64" r="222.64"/><circle class="cls-2" cx="225.64" cy="225.64" r="222.64"/><path class="cls-3" d="M180.78,434.8l-28.15,4.64s-11.17-15.52-3.48-83.28c0,0,6-30.11-6.6-43.09,0,0-5.73-9-20-13,0,0-8.12-4.35-10.95-9,0,0,9.93,7.11,21.11,7.48,0,0-13.06-17.05-9.36-37.08,0,0-.51,15.75,12.69,31s17.27,21.33,19.59,28.15a114.6,114.6,0,0,0,13.2-51.8c.15-29.31-8.12-48-8.7-49.47s18,12.18,17.56,60.21c0,0,23.65-19.44,28.87-45.12,0,0,.43,29.16-31.2,58.47,0,0-4.78,29.6-5.65,31.19,0,0,13.49-14.8,21.61-17.12,0,0,19.88-13.2,23.94-25.24,0,0-2.9,15.23-21.47,28.58l17.27,1.16s-37.44,1-45.42,38.88C165.69,350.35,163.81,413,180.78,434.8Z" transform="translate(-59.74 -103.09)"/><path class="cls-4" d="M159.09,228.44s-19.91,3.05-30.14-11.75c0,0-5.66-8.38-7.29-10.23,0,0,25.79-15.89,39,17.19,0,0-16.32-4.86-18.39-8C142.22,215.67,148.74,224.86,159.09,228.44Z" transform="translate(-59.74 -103.09)"/><path class="cls-4" d="M202.94,242.44S192.82,247.26,185,241c0,0-4.36-3.55-5.53-4.27,0,0,11.17-12.61,23.51,2.88,0,0-9.48,0-11.08-1.28A21.61,21.61,0,0,0,202.94,242.44Z" transform="translate(-59.74 -103.09)"/><path class="cls-4" d="M207.85,241.83s5.79-14.7,19.86-15.8c0,0,7.91-.53,9.81-.91,0,0,.59,23.75-27,19.63,0,0,9.73-9.15,12.66-9.32C223.16,235.43,214.36,236.22,207.85,241.83Z" transform="translate(-59.74 -103.09)"/><path class="cls-4" d="M203.12,236.16s-5.32-3.38-4.69-9c0,0,.39-3.14.39-3.91,0,0,9.34,1.55,5.65,12.06,0,0-2.85-4.5-2.7-5.66A12.19,12.19,0,0,0,203.12,236.16Z" transform="translate(-59.74 -103.09)"/><path class="cls-4" d="M216.24,279.9s-5.32-3.38-4.69-9c0,0,.39-3.14.38-3.91,0,0,9.35,1.56,5.65,12.07,0,0-2.85-4.51-2.69-5.67A12.07,12.07,0,0,0,216.24,279.9Z" transform="translate(-59.74 -103.09)"/><path class="cls-4" d="M217.24,285.88s1.4-6.15,6.88-7.42c0,0,3.09-.68,3.82-.94,0,0,1.65,9.33-9.49,9.35,0,0,3.3-4.19,4.44-4.43A12.13,12.13,0,0,0,217.24,285.88Z" transform="translate(-59.74 -103.09)"/><path class="cls-4" d="M208,249.28s7.69.12,10.6,6.34c0,0,1.6,3.51,2.1,4.31,0,0-10.71,4.35-13.58-8.94,0,0,5.84,2.86,6.42,4.17A14.85,14.85,0,0,0,208,249.28Z" transform="translate(-59.74 -103.09)"/><path class="cls-4" d="M161.94,215.57s-5.89-6.95-2.61-14.4c0,0,1.9-4.16,2.22-5.23,0,0,12.23,6.18,2.59,19.08,0,0-2-7.44-1.27-9A17.53,17.53,0,0,0,161.94,215.57Z" transform="translate(-59.74 -103.09)"/><path class="cls-4" d="M195.23,297.28s-6.77-13.86,2.88-24.87c0,0,5.49-6.14,6.62-7.77,0,0,18.33,15.12-5.34,32.62,0,0,.36-13.11,2.41-15.37C201.8,281.89,195.85,288.85,195.23,297.28Z" transform="translate(-59.74 -103.09)"/><path class="cls-4" d="M205.17,303.69s6.12-14.16,20.75-14c0,0,8.23.17,10.21,0,0,0,.46,23.77-28.23,17.2,0,0,10.18-8.27,13.23-8.18C221.13,298.66,212,298.68,205.17,303.69Z" transform="translate(-59.74 -103.09)"/><path class="cls-4" d="M201.85,314.52s13.7-2.56,21,8.48c0,0,4,6.25,5.18,7.62,0,0-17.57,12.34-27.13-12.46,0,0,11.33,3.45,12.8,5.78C213.67,323.94,209,317.09,201.85,314.52Z" transform="translate(-59.74 -103.09)"/><path class="cls-4" d="M166.41,219.15s9.67-11.62,22.78-8.41c0,0,7.35,1.89,9.19,2.12,0,0-6.57,21.76-30.44,9.74,0,0,11.59-5.4,14.3-4.67C182.24,217.93,174,216,166.41,219.15Z" transform="translate(-59.74 -103.09)"/><path class="cls-4" d="M124.87,266.23s.45-20.43,16.19-28.34c0,0,8.9-4.34,10.93-5.68,0,0,10.75,28.36-22.83,36.31,0,0,7.34-15.59,10.64-17.16C139.8,251.36,130,256.43,124.87,266.23Z" transform="translate(-59.74 -103.09)"/><path class="cls-4" d="M116.45,301.37S103.38,309.49,92,303c0,0-6.36-3.73-8-4.44,0,0,13.51-18.31,32.23-.74,0,0-12.83,1.84-15.18.44A29.38,29.38,0,0,0,116.45,301.37Z" transform="translate(-59.74 -103.09)"/><path class="cls-4" d="M119,292.7s-8.95-3.6-9.89-11.79c0,0-.47-4.6-.74-5.71,0,0,14.27,0,12.34,16,0,0-5.7-5.8-5.86-7.51A18.42,18.42,0,0,0,119,292.7Z" transform="translate(-59.74 -103.09)"/><path class="cls-4" d="M119,266.58S110,263,109.07,254.8c0,0-.47-4.61-.74-5.72,0,0,14.27,0,12.34,16,0,0-5.7-5.8-5.86-7.5A18.4,18.4,0,0,0,119,266.58Z" transform="translate(-59.74 -103.09)"/><path class="cls-4" d="M129.87,273.28s16.17-4.42,26.06,5.94c0,0,5.49,5.87,7,7.13,0,0-19.78,14.93-33.87-9.22,0,0,14,2.06,16,4.25C145.06,281.38,138.78,275,129.87,273.28Z" transform="translate(-59.74 -103.09)"/><path class="cls-3" d="M298.89,339.28l-.65,2.63a25.24,25.24,0,0,1-5.23.7c-1.29,0-3.44-.14-6.43-.42-2.25-.18-4.27-.28-6.06-.28a56.37,56.37,0,0,0-9.53.84l.64-2.55q4.68-.46,6.81-1.94a8.2,8.2,0,0,0,2.61-3.63q1.09-2.58,4.93-17.93l5.92-24.53.33-1.16c-1.83-.09-3.2-.13-4.12-.13q-8.57,0-13.58,1.85a15.64,15.64,0,0,0-7.55,5.38,12.81,12.81,0,0,0-2.52,7.6,6.68,6.68,0,0,0,.51,2.64,13.14,13.14,0,0,0,2,2.69,4.88,4.88,0,0,1,1.57,3.15,2.83,2.83,0,0,1-.92,2.13,3.11,3.11,0,0,1-2.23.88,3.6,3.6,0,0,1-3.14-1.85,12.6,12.6,0,0,1-1.76-6.94,19.69,19.69,0,0,1,3.49-11,23.09,23.09,0,0,1,9.6-8.24,34.39,34.39,0,0,1,14.86-2.91,114.64,114.64,0,0,1,13.28,1.2,84.38,84.38,0,0,0,9.39.83,6.66,6.66,0,0,0,4.12-1c.8-.65,5.69.15,3.2,1.85s-6.68,2.55-12.53,2.55c-2.09,0-4.33-.1-6.7-.28q-.47,1.66-2.92,11.29l-4,16-2.45,9.76-2.56,11.15a44.16,44.16,0,0,0,5.14.37A28.77,28.77,0,0,0,298.89,339.28Z" transform="translate(-59.74 -103.09)"/><path class="cls-5" d="M304.39,291.34a41.37,41.37,0,0,0,11.24-.79c3.51-.85,7.59-4.33,10.07-4.58,33.73-3.31,53.66,16.27,82-37.38,0,0-10.59,13.16-36.87,9.81s-31.84,5.84-41.49,17.18c0,0,40.38,9.16,68.6-15.13,0,0-15.22,26.55-69.2,19.5A27.91,27.91,0,0,1,318,286.3a41.28,41.28,0,0,1-9,1.73c-1.75.13-3.22-.62-4.48.22C301.92,290,303.46,291.32,304.39,291.34Z" transform="translate(-59.74 -103.09)"/><path class="cls-3" d="M342,340.55l-.37,1.62a21.63,21.63,0,0,1-2.22.17c-.82,0-1.9-.07-3.25-.2s-2.67-.2-3.69-.2a8.94,8.94,0,0,0-2.54.4c.77-2.18,1.66-5.22,2.67-9.1l2.19-8.54-7.7.29c-1.35.07-2.73.18-4.16.31a48.25,48.25,0,0,1-4,11.24,14.9,14.9,0,0,1-4.68,5.36,9.24,9.24,0,0,1-5.05,1.72,7,7,0,0,1-4-1.14,2.31,2.31,0,0,1-1.22-2,1.68,1.68,0,0,1,.48-1.21,1.57,1.57,0,0,1,1.17-.5c.74,0,1.5.53,2.27,1.57a5,5,0,0,0,1.16,1.21,1.83,1.83,0,0,0,1,.27q2.22,0,4.17-3.59t5.7-17.72l2.79-10.41q-5.7,0-8.55,1.87t-2.86,4.24a4.11,4.11,0,0,0,.77,2,4,4,0,0,1,.68,1.85,1.83,1.83,0,0,1-.53,1.35,1.79,1.79,0,0,1-1.32.53,2.11,2.11,0,0,1-1.71-1,4.64,4.64,0,0,1-.71-2.78,8.26,8.26,0,0,1,2.39-5.83,13.45,13.45,0,0,1,6.94-3.58,57.46,57.46,0,0,1,10.45-.6q-2.11,4.15-4.72,14.68a101.37,101.37,0,0,0,11.87-.54q2.46-8.25,4.34-11.51a13,13,0,0,1,4.23-4.71,9.74,9.74,0,0,1,5.25-1.45,6.67,6.67,0,0,1,3.85.95,2.69,2.69,0,0,1,1.35,2.18,1.56,1.56,0,0,1-.48,1.17,1.76,1.76,0,0,1-1.25.45,3.33,3.33,0,0,1-2.24-1.42,3.43,3.43,0,0,0-2.28-1.42c-1.42,0-2.82,1.31-4.2,3.95q-3.69,7.06-8.55,29.79c.32,0,.77.1,1.35.2a15.72,15.72,0,0,0,2.61.28A14.06,14.06,0,0,0,342,340.55Z" transform="translate(-59.74 -103.09)"/><path class="cls-3" d="M385.82,314.57h-1.5a15.73,15.73,0,0,0,.22-2.3,1.45,1.45,0,0,0-1-1.5q-1-.34-7.19-.35l-4.16,0L369.11,323H375a8.09,8.09,0,0,0,3.42-.41,3,3,0,0,0,.93-2.06H381c-.61,2.29-1.15,4.82-1.62,7.57h-1.45c.09-.89.14-1.59.14-2.08a1.35,1.35,0,0,0-.4-.77,1.25,1.25,0,0,0-.74-.31,13.93,13.93,0,0,0-2.39-.14h-5.84a81.62,81.62,0,0,1-5.24,15.14,16,16,0,0,1,4.7-.83,40.57,40.57,0,0,1,8.37,1.08,19.53,19.53,0,0,0,3.56.6,3.11,3.11,0,0,0,2-.63,1.79,1.79,0,0,0,.77-1.41,4.79,4.79,0,0,0-.39-1.48,4.12,4.12,0,0,1-.24-1.33,1.59,1.59,0,0,1,.53-1.16,1.74,1.74,0,0,1,1.26-.51,1.87,1.87,0,0,1,1.47.68,2.72,2.72,0,0,1,.58,1.82,5.45,5.45,0,0,1-2.12,4.24,8.26,8.26,0,0,1-5.6,1.82,42.43,42.43,0,0,1-4.61-.31,92.44,92.44,0,0,0-9.34-.68,84.34,84.34,0,0,0-9.85.68l.45-1.59a18.43,18.43,0,0,0,4-1.36,3.35,3.35,0,0,0,1-1.29,66.91,66.91,0,0,0,3.54-10.83q2.17-8.13,4.41-17.16a13.58,13.58,0,0,0-6.46,1.62,12.7,12.7,0,0,0-4.76,4.21,9.82,9.82,0,0,0-1.71,5.47,8.33,8.33,0,0,0,.24,2.13,13.77,13.77,0,0,0,1.1,2.56,3.63,3.63,0,0,1,.54,1.62,1.49,1.49,0,0,1-.52,1.11,1.84,1.84,0,0,1-1.29.48,2,2,0,0,1-1.75-1.11,8.64,8.64,0,0,1-1-4.41,15.12,15.12,0,0,1,4.52-10.72q4.53-4.75,13.17-4.76h9.76a30.94,30.94,0,0,0,7.48-.65C386.52,311,386,313.24,385.82,314.57Z" transform="translate(-59.74 -103.09)"/><path class="cls-6" d="M168.54,431.36s3-17.14,24-34.59" transform="translate(-59.74 -103.09)"/><circle class="cls-7" cx="129.7" cy="296.63" r="2.94"/><path class="cls-6" d="M155.47,434.29s-3-17.13-24-34.58" transform="translate(-59.74 -103.09)"/><circle class="cls-7" cx="74.82" cy="299.41" r="2.94"/><path class="cls-8" d="M152,439.44s-15-25.54,3.24-48.67c0,0-2.84,24.35,7.31,33.69s7.31,15,7.31,15Z" transform="translate(-59.74 -103.09)"/><path class="cls-9" d="M131.48,413.73s17.32,1.9,29.5,25.44H150.42S149.34,424.29,131.48,413.73Z" transform="translate(-59.74 -103.09)"/><path class="cls-9" d="M135.51,427.33s11.21-1.32,18.16,12.11h-6S146.23,430.57,135.51,427.33Z" transform="translate(-59.74 -103.09)"/><path class="cls-10" d="M165.62,439.44s4.6-25.6,21-29.46c0,0-7.88,17.49-7.48,29.46Z" transform="translate(-59.74 -103.09)"/><path class="cls-11" d="M183.45,439.44s0-9.91,5.75-13.16c0,0-10.82-1.49-18.94,13.16Z" transform="translate(-59.74 -103.09)"/><path class="cls-12" d="M158.24,439.44H170s.4-33.28,13.8-43.84C183.82,395.6,164.33,405.34,158.24,439.44Z" transform="translate(-59.74 -103.09)"/><text class="cls-13" transform="translate(141.12 317.97) scale(0.62 1)">Book Garden</text><path class="cls-14" d="M137.5,463.11l4.14,15.67S217.68,438,291,477.7c0,0,75.06-41.84,150.12,1.08l4.13-15.24s-97.51-37.76-153.85,7.3C291.36,470.84,252.35,427.71,137.5,463.11Z" transform="translate(-59.74 -103.09)"/><path class="cls-15" d="M146.11,460v-7.58s112.41-26.61,145.25,17.16C291.36,469.57,253.27,427.38,146.11,460Z" transform="translate(-59.74 -103.09)"/><path class="cls-15" d="M437.14,459.46v-7S324.72,425.8,291.89,469.57C291.89,469.57,330,426.84,437.14,459.46Z" transform="translate(-59.74 -103.09)"/><path class="cls-16" d="M300,460.15c-3.75,3.3-6.45,5.69-8.42,9.42-1.65-3.7-5.4-6.37-8.23-9.31,2.29.5,8.24,3.65,8.24,3.65S297.35,460.86,300,460.15Z" transform="translate(-59.74 -103.09)"/></svg>